# xmcd
#
# Track frame offsets: 
#        150
#        14300
#        25687
#        40125
#        53550
#        66162
#        81375
#        96550
#        109607
#        124007
#        143737
#        158500
#        173100
#        190550
#        205600
#        220600
#        234050
#        252145
#        270157
#        285012
#
# Disc length: 4014 seconds
#
# Revision: 0
# Processed by: cddbd v1.5.2PL0 Copyright (c) Steve Scherf et al.
# Submitted via: ExactAudioCopy v1.0b1
#
DISCID=f20fac14
DTITLE=石原裕次郎 - 太陽の軌跡~ベスト・ヒッツ40（Disc1）
DYEAR=2009
DGENRE=JPop
TTITLE0=狂った果実
TTITLE1=俺は待ってるぜ 
TTITLE2=錆びたナイフ
TTITLE3=嵐を呼ぶ男
TTITLE4=鷲と鷹
TTITLE5=明日は明日の風が吹く
TTITLE6=風速四十米
TTITLE7=紅の翼
TTITLE8=世界を賭ける恋
TTITLE9=銀座の恋の物語
TTITLE10=赤いハンカチ
TTITLE11=花と竜
TTITLE12=夕陽の丘
TTITLE13=俺はお前に弱いんだ
TTITLE14=黒い海峡
TTITLE15=王将・夫婦駒
TTITLE16=泣かせるぜ
TTITLE17=二人の世界
TTITLE18=夜霧の慕情
TTITLE19=こぼれ花
EXTD=
EXTT0=
EXTT1=
EXTT2=
EXTT3=
EXTT4=
EXTT5=
EXTT6=
EXTT7=
EXTT8=
EXTT9=
EXTT10=
EXTT11=
EXTT12=
EXTT13=
EXTT14=
EXTT15=
EXTT16=
EXTT17=
EXTT18=
EXTT19=
PLAYORDER=
